<svg width="59" height="59" viewBox="0 0 59 59" fill="none" xmlns="http://www.w3.org/2000/svg">
<path d="M2.24146 57.4105C2.2722 54.7609 2.97533 52.1619 4.28574 49.8539C5.66767 47.4538 7.65968 45.4561 10.0626 44.0605C12.4655 42.665 15.1952 41.9205 17.9786 41.9015C23.5929 41.9142 28.9072 44.9965 31.6715 49.8539C32.9812 52.1606 33.6843 54.7581 33.7157 57.4062M42.3729 5.91534V2.42444M54.3686 10.2023L57.2443 8.1972M30.3686 10.2023L27.4886 8.1972M17.9743 34.4854C19.0364 34.5099 20.0927 34.3232 21.0811 33.9364C22.0696 33.5496 22.9702 32.9704 23.7301 32.2328C24.4899 31.4953 25.0937 30.6144 25.506 29.6418C25.9182 28.6691 26.1306 27.6245 26.1306 26.5692C26.1306 25.5138 25.9182 24.4692 25.506 23.4966C25.0937 22.5239 24.4899 21.643 23.7301 20.9055C22.9702 20.168 22.0696 19.5888 21.0811 19.2019C20.0927 18.8151 19.0364 18.6284 17.9743 18.6529C15.8927 18.7008 13.9126 19.5559 12.4575 21.0353C11.0024 22.5147 10.1877 24.5009 10.1877 26.5692C10.1877 28.6375 11.0024 30.6237 12.4575 32.103C13.9126 33.5824 15.8927 34.4375 17.9743 34.4854ZM51.0857 21.5606C51.0785 20.4084 50.8422 19.2691 50.3904 18.2079C49.9386 17.1467 49.2803 16.1847 48.4532 15.3769C47.6261 14.5692 46.6466 13.9317 45.5708 13.501C44.495 13.0703 43.3441 12.855 42.1843 12.8674C41.025 12.9031 39.8841 13.1659 38.8273 13.6408C37.7705 14.1157 36.8185 14.7933 36.0261 15.6347C35.2336 16.4761 34.6163 17.4647 34.2095 18.5437C33.8027 19.6227 33.6145 20.7709 33.6557 21.9224C33.7411 23.4621 34.2317 24.9526 35.0785 26.245C35.9253 27.5374 37.0987 28.5865 38.4815 29.2874V33.5446C38.4892 33.795 38.5946 34.0325 38.7753 34.2073C38.9559 34.382 39.1979 34.4802 39.45 34.4812H45.2829C45.5358 34.4813 45.7788 34.3836 45.9604 34.2087C46.142 34.0339 46.2479 33.7957 46.2557 33.5446V29.2108C47.6814 28.4875 48.8835 27.3945 49.7346 26.0477C50.5857 24.7009 51.0498 23.1504 51.0857 21.5606Z" stroke="#FF3E54" stroke-width="3" stroke-linecap="round" stroke-linejoin="round"/>
</svg>
