<svg width="147" height="31" viewBox="0 0 147 31" fill="none" xmlns="http://www.w3.org/2000/svg">
<path d="M9.46824 30.017H3.94901V15.2474H0.189209V10.4387H3.94886V7.01699C3.94886 2.96224 5.61177 0.0541992 11.1161 0.0541992C12.2802 0.0541992 14.1079 0.306088 14.1079 0.306088V4.77122H12.1882C10.2322 4.77122 9.46853 5.4099 9.46853 7.17564V10.4387H14.0347L13.6281 15.2474H9.46839L9.46824 30.017ZM22.1322 10.0544C22.0518 10.0544 21.9691 10.0576 21.8872 10.0598C16.7695 10.0598 14.4279 14.1922 14.4279 20.0583C14.4279 27.448 17.4652 30.4055 21.9272 30.4055C24.4801 30.4055 26.1573 29.2521 27.1768 27.0995V30.0191H32.4263V10.4408H27.1768V13.4516C26.3444 11.5145 24.6202 10.0774 22.1322 10.0544ZM23.4671 14.6807C25.6165 14.6807 26.9067 16.2902 26.9067 19.0278L26.9116 21.8239C26.9116 23.669 25.8461 25.8277 23.4671 25.8277C19.8096 25.8277 19.9073 21.5883 19.9073 20.1764C19.9073 15.4268 21.856 14.6807 23.4671 14.6807ZM34.5464 20.2309C34.5464 17.8518 34.4403 10.0672 43.8884 10.0672C47.681 10.0672 49.2647 11.3617 49.2647 11.3617L47.9918 15.5996C47.9918 15.5996 46.4102 14.6647 44.3493 14.6647C41.7098 14.6647 40.0255 16.3073 40.0255 19.1974L40.0284 21.2698C40.0284 24.0468 41.6535 25.9006 44.3548 25.9006C46.2322 25.9006 47.9627 24.9569 47.9627 24.9569L49.2323 29.1063C49.2323 29.1063 47.7843 30.409 43.9149 30.409C34.9189 30.409 34.5465 23.4247 34.5465 20.2309H34.5464ZM80.0448 10.0598C85.1627 10.0598 87.5411 14.1922 87.5411 20.0583C87.5411 27.448 84.5037 30.4055 80.0418 30.4055C77.4889 30.4055 75.6017 29.2522 74.5823 27.0995V30.0191L69.3988 30.0169V0.649487L74.9023 0.134231V13.1864C75.6966 10.9029 78.3071 10.0598 80.045 10.0598H80.0448ZM78.5019 14.6807C76.3524 14.6807 74.9023 16.2902 74.9023 19.0278L74.8972 21.8239C74.894 23.669 75.9014 25.8277 78.5019 25.8277C82.1593 25.8277 82.0616 21.5883 82.0616 20.1764C82.0616 15.4268 80.1131 14.6807 78.5019 14.6807ZM58.8138 10.076C53.0091 10.076 49.9446 13.4733 49.9446 19.5108V20.6325C49.9446 28.4686 54.2481 30.486 59.3787 30.486C64.3657 30.486 66.623 28.9887 66.623 28.9887L65.5931 25.0012C65.5931 25.0012 62.9379 26.214 60.0386 26.214C57.033 26.214 55.7404 25.3917 55.409 22.291H67.063V19.0921C67.063 12.543 63.6237 10.0758 58.8136 10.0758L58.8138 10.076ZM58.9537 14.0688C60.963 14.0688 62.265 15.3914 62.1935 18.4589H55.4191C55.5366 15.2304 56.9407 14.0689 58.9537 14.0689V14.0688ZM98.515 10.0491C92.554 10.0491 89.4158 13.6551 89.4158 20.1172C89.4158 28.9837 94.8254 30.4109 98.525 30.4109C103.941 30.4109 107.544 27.2808 107.544 20.1978C107.544 12.8255 103.493 10.0491 98.515 10.0491ZM98.44 14.6968C101.061 14.6968 102.1 16.8026 102.1 19.1996V21.2605C102.1 24.1643 100.646 25.8439 98.43 25.8439C96.3572 25.8439 94.9004 24.2728 94.9004 21.2605V19.1996C94.9004 15.987 96.6339 14.6968 98.44 14.6968ZM118.508 10.0491C112.547 10.0491 109.409 13.6551 109.409 20.1172C109.409 28.9837 114.819 30.4109 118.518 30.4109C123.934 30.4109 127.537 27.2808 127.537 20.1978C127.537 12.8255 123.486 10.0491 118.508 10.0491ZM118.433 14.6968C121.054 14.6968 122.093 16.8026 122.093 19.1996V21.2605C122.093 24.1643 120.64 25.8439 118.423 25.8439C116.35 25.8439 114.894 24.2728 114.894 21.2605V19.1996C114.894 15.987 116.627 14.6968 118.433 14.6968ZM129.617 30.017V0.649487L135.137 0.134231V19.8182L140.613 10.4387H146.442L140.729 20.1531L146.662 30.017H140.816L135.137 20.4393V30.017H129.617Z" fill="#170F49" fill-opacity="0.6"/>
</svg>
