<svg width="121" height="43" viewBox="0 0 121 43" fill="none" xmlns="http://www.w3.org/2000/svg">
<path d="M15.386 0.305176H16.4501C20.1445 0.391388 23.7786 1.98632 26.3887 4.80977C25.425 5.86588 24.4412 6.87887 23.4975 7.93498C22.0318 6.51247 20.2649 5.41326 18.3375 5.02531C15.4864 4.37871 12.4145 4.96065 10.0252 6.70645C7.41505 8.53846 5.64819 11.6421 5.26671 14.9613C4.84507 18.2374 5.70842 21.6859 7.69614 24.2291C9.60355 26.7077 12.5149 28.2596 15.5265 28.3673C18.3375 28.5397 21.2688 27.613 23.3168 25.5008C24.923 24.0136 25.6659 21.7505 25.9069 19.5521C22.5739 19.5521 19.241 19.5737 15.908 19.5521V15.1122H29.9425C30.6653 19.8754 29.6213 25.2421 26.2482 28.6475C23.9995 31.0615 20.8874 32.484 17.715 32.7642C14.6431 33.0875 11.4708 32.4624 8.7402 30.8675C5.46749 28.9924 2.85735 25.8241 1.57236 22.0954C0.367686 18.6684 0.347608 14.7889 1.47197 11.3404C2.49595 8.19361 4.46359 5.41326 6.99341 3.47348C9.42285 1.55526 12.3743 0.499154 15.386 0.305176Z" fill="#170F49" fill-opacity="0.6"/>
<path d="M95.8992 1.42603H100.196V32.2038C98.7703 32.2038 97.3247 32.2254 95.8992 32.1823C95.9192 21.9445 95.8992 11.6853 95.8992 1.42603Z" fill="#170F49" fill-opacity="0.6"/>
<path d="M39.4994 12.0949C42.1497 11.5561 45.0208 12.1595 47.2093 13.8622C49.1971 15.3709 50.5824 17.7417 51.0041 20.3281C51.5462 23.324 50.8635 26.6 49.0565 28.9708C47.109 31.6218 43.9166 33.0443 40.8045 32.8288C37.9534 32.6564 35.1826 31.1261 33.4961 28.626C31.5887 25.8672 31.1269 22.0739 32.1709 18.8409C33.215 15.3709 36.1665 12.7199 39.4994 12.0949ZM40.1017 16.1899C39.0175 16.4917 38.0136 17.1598 37.2908 18.1081C35.3433 20.6083 35.4637 24.6818 37.6121 27.0095C38.8368 28.3458 40.684 28.9708 42.3906 28.6044C43.9768 28.3027 45.3622 27.1604 46.1251 25.6517C47.4503 23.0869 47.0688 19.5522 45.0409 17.5478C43.7359 16.2546 41.8284 15.7158 40.1017 16.1899Z" fill="#170F49" fill-opacity="0.6"/>
<path d="M60.7804 12.0946C63.8122 11.4696 67.1251 12.3748 69.3939 14.6595C73.0882 18.2157 73.4898 24.8756 70.3376 28.9707C68.4302 31.5571 65.3381 32.9796 62.2863 32.8288C59.375 32.7425 56.5038 31.1907 54.7771 28.6259C52.8296 25.8024 52.4079 21.9229 53.5122 18.6252C54.6165 15.2629 57.5077 12.6981 60.7804 12.0946ZM61.3828 16.1897C60.2986 16.4915 59.2947 17.1596 58.5719 18.0864C56.6444 20.5435 56.7247 24.5524 58.7927 26.9016C60.0175 28.3026 61.9249 28.9923 63.6917 28.6043C65.2578 28.281 66.6633 27.1603 67.4263 25.6516C68.7313 23.0652 68.3498 19.5305 66.3019 17.526C64.9968 16.2328 63.0894 15.7156 61.3828 16.1897Z" fill="#170F49" fill-opacity="0.6"/>
<path d="M78.8325 13.3448C81.1415 11.793 84.2134 11.362 86.7031 12.6982C87.4861 13.0646 88.1286 13.6897 88.751 14.3147C88.7711 13.7328 88.751 13.1293 88.7711 12.5258C90.1163 12.5474 91.4616 12.5258 92.8269 12.5474V31.5572C92.8068 34.4237 92.1242 37.4627 90.1967 39.5534C88.0885 41.8595 84.8559 42.5708 81.9446 42.0966C78.8325 41.6009 76.122 39.1654 74.9173 36.0833C76.122 35.4583 77.3869 34.9626 78.6317 34.3806C79.3345 36.148 80.76 37.6567 82.5469 38.0015C84.3339 38.3464 86.4019 37.8722 87.5664 36.2773C88.8113 34.6393 88.8113 32.3977 88.751 30.3933C87.8275 31.3632 86.7633 32.2253 85.4783 32.5486C82.6875 33.3892 79.6155 32.3546 77.4672 30.3286C75.2988 28.3027 74.0138 25.1775 74.1343 22.0738C74.1945 18.5607 76.0417 15.1768 78.8325 13.3448ZM82.9887 16.1036C81.7639 16.3192 80.6194 17.052 79.8364 18.065C77.9491 20.4789 77.9491 24.3369 79.8565 26.7077C80.9407 28.1087 82.6875 28.8846 84.374 28.6906C85.9602 28.5182 87.4259 27.4405 88.2089 25.9534C89.5341 23.4317 89.3132 20.0047 87.5263 17.8063C86.422 16.4485 84.6551 15.7803 82.9887 16.1036Z" fill="#170F49" fill-opacity="0.6"/>
<path d="M105.353 14.444C107.762 12.0301 111.477 11.211 114.569 12.4827C117.5 13.6681 119.367 16.664 120.311 19.7461C115.954 21.6858 111.617 23.6041 107.26 25.5438C107.863 26.7724 108.786 27.8931 110.031 28.3457C111.778 29.0139 113.866 28.7768 115.332 27.5267C115.914 27.0526 116.376 26.4275 116.817 25.824C117.922 26.6215 119.026 27.3974 120.13 28.1949C118.564 30.7166 115.934 32.4839 113.103 32.7641C109.971 33.1736 106.638 31.8805 104.61 29.251C101.277 25.1128 101.598 18.1727 105.353 14.444ZM107.501 18.4313C106.819 19.4874 106.537 20.7806 106.558 22.0522C109.469 20.7591 112.38 19.4659 115.291 18.1511C114.81 16.9442 113.645 16.2114 112.46 16.0174C110.553 15.651 108.565 16.7502 107.501 18.4313Z" fill="#170F49" fill-opacity="0.6"/>
</svg>
