<svg width="152" height="40" viewBox="0 0 152 40" fill="none" xmlns="http://www.w3.org/2000/svg">
<path d="M16.5302 0.879808C14.5733 1.11523 11.6379 2.09314 9.96774 3.07106C5.48028 5.66072 2.44365 9.69913 0.925337 15.0777C0.621675 16.128 0.267401 18.9893 0.284272 20.3294C0.284272 21.5065 0.621675 24.3859 0.824116 25.0741C0.925337 25.4001 1.14465 26.1788 1.33022 26.7764C1.63388 27.7905 3.10159 30.9778 3.35464 31.1951C3.40525 31.2494 3.67517 31.6116 3.92822 32.0281C4.55242 33.0242 6.18883 34.7989 7.42035 35.813C8.36508 36.5917 11.0306 38.2397 11.368 38.2578C11.4523 38.2578 11.4692 37.5697 11.4186 36.6642C11.3005 34.654 11.6548 31.9195 12.4139 29.1306C12.5489 28.6598 12.6501 28.0441 12.6501 27.7724C12.6501 27.5008 12.7176 27.211 12.8019 27.1205C12.8863 27.0118 13.0381 26.4866 13.1225 25.9434C13.2237 25.4001 13.3924 24.567 13.5105 24.0962C13.6792 23.3899 13.6623 23.1183 13.4261 22.3577C13.0887 21.1987 13.0718 19.3153 13.4092 18.4098C14.2021 16.2548 15.0794 15.4398 16.564 15.4398C18.3522 15.4398 19.2126 16.8886 18.8752 19.3153C18.7233 20.42 18.3016 22.1585 18.0317 22.7018C17.9642 22.8647 17.8461 23.3175 17.7955 23.6978C17.728 24.0962 17.593 24.6576 17.5087 24.9654C17.2725 25.6717 17.728 27.048 18.3353 27.5732C18.9089 28.0622 20.1067 28.207 21.2033 27.9354C21.9793 27.7543 22.2998 27.537 23.1096 26.704C24.0712 25.6898 24.7966 24.5127 24.7966 23.9513C24.7966 23.7883 24.881 23.571 24.9822 23.4624C25.4545 22.9553 25.7076 19.0074 25.3533 17.3413C24.9653 15.5123 23.7675 13.7194 22.2155 12.6691C20.6634 11.6006 17.4581 11.2928 15.4843 12.0171C14.1009 12.5242 12.8694 13.3754 12.0765 14.3714C11.368 15.2587 10.6257 16.7075 10.6257 17.2146C10.6257 17.3957 10.5413 17.6311 10.4401 17.7397C10.3389 17.8484 10.2208 18.5366 10.1702 19.2791C10.0858 20.3837 10.1533 20.8908 10.457 21.9774C10.6594 22.7199 11.0306 23.5891 11.2499 23.9151C11.7054 24.567 11.7054 24.8206 11.2836 26.5591C11.1655 27.0299 10.9631 27.4646 10.845 27.5189C9.78217 27.9535 7.62279 25.219 6.89737 22.5026C6.62745 21.4703 6.61058 17.7941 6.8805 16.7075C6.99859 16.2548 7.20103 15.6391 7.336 15.3131C7.47096 15.0052 7.58905 14.6974 7.58905 14.6249C7.58905 14.5525 7.92645 13.9368 8.3482 13.2667C10.5413 9.71724 14.1009 7.83386 18.6053 7.83386C19.6343 7.83386 20.6972 7.90629 20.9839 7.99684C23.312 8.77555 23.9362 9.02908 24.8472 9.60859C26.6186 10.7495 27.9007 12.3069 29.1828 14.9147C29.2672 15.0777 29.3853 15.5123 29.4359 15.8745C29.5034 16.2367 29.6215 16.5807 29.7058 16.6351C29.7902 16.6894 29.8576 17.8665 29.8576 19.2609C29.8576 21.7782 29.6889 22.7923 28.9804 24.8568C28.1875 27.1205 26.1462 29.6196 24.2905 30.5975C23.2277 31.1408 21.237 31.7384 20.4441 31.7384C19.3813 31.7384 17.2894 30.7967 16.7158 30.0361C16.4459 29.692 16.1928 29.8188 16.1928 30.3077C16.1928 30.4888 16.1253 30.7967 16.0241 30.9778C15.9398 31.1408 15.7879 31.6478 15.7036 32.1006C15.2144 34.491 14.5227 36.4288 13.4599 38.2397C13.1393 38.8011 13.4092 39.1271 14.2865 39.2538C14.7251 39.3263 15.3156 39.453 15.5855 39.5436C16.2603 39.779 19.9211 39.7428 21.1526 39.5074C22.2661 39.2901 24.0712 38.7468 24.881 38.3846C29.9757 36.139 33.839 31.5754 35.5091 25.7623C36.4033 22.6655 36.4539 19.0617 35.6441 15.4398C35.3742 14.2627 35.2898 13.9911 34.5644 12.1801C33.5185 9.53615 31.1566 6.43942 28.7611 4.53793C26.7029 2.90807 24.6785 1.96638 21.5238 1.15145C20.6465 0.934136 17.5256 0.753041 16.5302 0.879808ZM61.5229 7.41734C60.865 7.52599 59.819 8.685 59.5491 9.59048C59.2623 10.5865 59.5491 11.655 60.3589 12.488C62.1471 14.3533 65.2512 12.5967 64.8632 9.91645C64.627 8.21416 63.1762 7.12759 61.5229 7.41734ZM43.1345 8.4858C42.9826 8.66689 42.9826 30.507 43.1513 30.7605C43.2357 30.9054 43.9611 30.9597 45.3782 30.9416L47.487 30.9235L47.5713 27.2472C47.6388 24.2592 47.7063 23.5348 47.9087 23.408C48.0437 23.3175 49.1908 23.2269 50.4561 23.2269C53.2228 23.2269 54.3868 23.0096 55.6521 22.2852C57.3054 21.3254 58.267 19.9491 58.79 17.7579C59.1105 16.3815 59.1105 15.3855 58.7731 13.973C58.4694 12.7053 58.3345 12.3974 57.609 11.3652C56.7149 10.0794 55.8039 9.37316 54.3194 8.81177C53.4927 8.52202 52.8011 8.46769 48.3305 8.41336C45.5469 8.37714 43.2019 8.41336 43.1345 8.4858ZM52.3962 12.9951C53.5265 13.3754 54.0832 13.9186 54.3362 14.8966C54.6568 16.1823 54.4206 17.3776 53.712 18.1019C52.936 18.8806 52.2443 19.0617 49.9837 19.0617C48.4992 19.0617 48.0437 19.0074 47.8412 18.772C47.6219 18.5547 47.5713 18.0295 47.5713 15.965C47.5713 12.7053 47.5544 12.7234 49.8994 12.7234C50.9116 12.7234 51.8901 12.8321 52.3962 12.9951ZM81.9864 11.9266C81.9864 13.1762 81.9021 14.3533 81.8177 14.5525C81.6996 14.7879 81.4634 14.8966 81.0586 14.8966C80.7549 14.8966 80.4681 14.969 80.4344 15.0777C80.4175 15.1682 80.4175 15.802 80.4681 16.4721C80.5525 17.6673 80.5693 17.6854 81.0754 17.8122C81.3622 17.8665 81.6828 17.9752 81.784 18.0476C81.9358 18.1382 81.9864 19.5688 81.9864 23.1907C81.9864 28.0622 82.0033 28.2433 82.3744 28.9676C83.1505 30.507 84.3651 31.0502 86.8282 30.9778L88.4814 30.9235L88.532 29.1668L88.5826 27.3921H88.1609C87.5198 27.3921 86.5751 26.8488 86.4739 26.4142C86.4233 26.1969 86.3727 24.2773 86.3727 22.1223C86.3727 19.1523 86.4233 18.1563 86.592 18.0114C86.7101 17.9027 87.1824 17.7941 87.6379 17.7579L88.4814 17.7035V14.9871L87.5536 14.9328C87.0475 14.8966 86.5751 14.7698 86.5076 14.6611C86.4401 14.5344 86.3727 13.3573 86.3727 12.0353V9.64481H81.9864V11.9266ZM144.693 9.75346C144.625 9.8259 144.575 10.9668 144.575 12.2888C144.575 14.8603 144.558 14.8966 143.63 14.8966C143.208 14.8966 143.208 14.9147 143.259 16.291C143.309 17.6673 143.326 17.7035 143.765 17.7579C144.001 17.7941 144.288 17.9208 144.372 18.0295C144.473 18.1563 144.575 20.3475 144.625 23.1364C144.676 25.8166 144.76 28.2614 144.828 28.5511C145.03 29.3479 146.076 30.3621 147.071 30.7062C148.185 31.1046 151.019 31.1408 151.306 30.7605C151.441 30.5975 151.491 29.9456 151.458 29.0039L151.407 27.4827L150.817 27.374C150.176 27.2653 149.45 26.9032 149.265 26.5953C149.197 26.4866 149.13 24.5127 149.13 22.2128C149.13 17.4862 149.028 17.7941 150.496 17.7941C151.458 17.7941 151.542 17.613 151.458 15.965L151.407 14.9871L150.311 14.8966L149.214 14.806L149.13 12.2707L149.045 9.73535L146.92 9.68102C145.756 9.66292 144.76 9.69913 144.693 9.75346ZM73.6357 14.4619C72.8091 14.6974 71.8475 15.295 71.2064 16.0012C70.4304 16.8705 70.2279 16.8162 70.1436 15.7115L70.093 14.9871H65.8754V30.9235L68.0011 30.9597C70.093 31.014 70.1436 30.9959 70.2448 30.5975C70.2954 30.3802 70.346 28.0803 70.346 25.4725C70.346 20.3113 70.3629 20.1664 71.3582 19.1523C71.7968 18.6996 72.033 18.609 72.9778 18.5547L74.0743 18.4822L74.7323 19.2247C75.5083 20.094 75.4239 19.261 75.4914 26.7583C75.5083 28.7503 75.5251 30.5069 75.542 30.688C75.5758 30.9416 75.8457 30.9778 77.7351 30.9416L79.8776 30.9235V18.2106L79.3884 17.1784C78.5449 15.3855 77.2459 14.5344 75.2552 14.4257C74.5467 14.4076 73.8213 14.4076 73.6357 14.4619ZM94.7234 14.4619C92.9014 14.9871 92.0242 15.5123 90.8939 16.7075C89.3755 18.3555 88.6839 20.2751 88.6839 22.8647C88.7007 27.4102 91.3494 30.7786 95.2632 31.177C98.6035 31.5211 101.185 30.4707 102.838 28.0984C103.074 27.7543 103.58 26.6496 103.58 26.4504C103.58 26.378 102.602 26.3055 101.421 26.3055H99.2615L98.7554 26.8669C98.1649 27.5189 97.3383 27.9354 96.5791 27.9354C95.8199 27.9354 94.6559 27.3559 94.1161 26.7402C93.7112 26.2512 93.1207 24.8387 93.1207 24.3497C93.1207 24.1867 94.3522 24.1324 98.3167 24.1324C101.168 24.1324 103.58 24.06 103.698 23.9875C103.951 23.8064 103.715 20.927 103.344 19.8767C102.585 17.6854 101.151 15.8383 99.7001 15.1863C99.2783 15.0052 98.7891 14.7698 98.6204 14.6792C98.2661 14.48 95.2632 14.3171 94.7234 14.4619ZM98.0131 18.4279C98.671 18.9169 99.2446 20.0759 99.1602 20.7278C99.1096 21.1443 99.0759 21.1443 96.2248 21.1987C92.9352 21.253 92.9183 21.2349 93.4413 19.931C93.8124 19.0255 94.5547 18.2106 95.2464 17.9752C96.0393 17.7035 97.3214 17.9208 98.0131 18.4279ZM119.691 14.4619C117.734 15.0233 116.368 15.9469 115.305 17.3776C114.883 17.9571 114.546 18.5003 114.546 18.609C114.546 18.6996 114.428 19.0255 114.276 19.3334C114.124 19.6231 113.905 20.5286 113.787 21.3435C113.196 25.219 114.816 28.8409 117.852 30.4707L119.016 31.1046H121.463C123.993 31.1046 124.212 31.0502 125.764 30.1629C126.895 29.5109 128.75 26.9756 128.464 26.4685C128.396 26.378 127.435 26.3055 126.304 26.3055H124.229L123.808 26.8307C122.121 28.8771 118.966 27.8267 118.291 24.9836C118.19 24.6033 118.19 24.2773 118.274 24.2048C118.358 24.1505 120.771 24.1143 123.656 24.1324C127.772 24.1324 128.885 24.0962 128.902 23.9151C129.054 21.6514 128.042 18.3011 126.777 16.8524C126.068 16.0375 124.837 15.132 124.229 14.969C123.959 14.8966 123.656 14.7698 123.538 14.6792C123.301 14.48 120.214 14.3171 119.691 14.4619ZM122.323 17.9933C123.082 18.283 123.959 19.2972 124.094 20.0759C124.297 21.253 124.314 21.253 121.176 21.1987C118.358 21.1443 118.342 21.1443 118.291 20.7278C118.224 20.2208 118.814 18.9712 119.32 18.5004C120.045 17.8484 121.311 17.6311 122.323 17.9933ZM134.368 14.4619C130.91 15.3493 129.661 16.6713 129.645 19.4239C129.645 22.3939 131.028 23.6434 135.127 24.4222C137.945 24.9473 138.754 25.4182 138.721 26.5591C138.704 27.374 138.181 27.8992 137.135 28.1346C135.819 28.4425 134.79 28.0984 133.963 27.1024L133.305 26.3055H131.264C129.611 26.3055 129.223 26.3599 129.223 26.5591C129.223 27.0843 129.898 28.4606 130.454 29.1487C130.977 29.7463 131.382 30.0361 132.968 30.851C133.12 30.9416 133.946 31.0865 134.773 31.1951C136.308 31.3943 138.974 31.2132 139.649 30.851C139.8 30.7786 140.239 30.5432 140.61 30.3621C141.572 29.8731 142.483 28.7684 142.82 27.7181C143.191 26.5229 143.09 24.8568 142.567 23.6978C141.943 22.3396 140.29 21.3617 137.827 20.8908C134.655 20.2932 134.604 20.2751 134.098 19.7499C133.491 19.0799 133.491 18.8444 134.098 18.1201C134.588 17.5405 134.621 17.5224 135.971 17.5224C137.321 17.5224 137.354 17.5405 137.843 18.1201C138.113 18.446 138.333 18.8263 138.333 18.9712C138.333 19.1885 138.687 19.2428 140.441 19.2428C142.77 19.2428 142.702 19.2972 142.297 18.0114C141.555 15.7296 139.649 14.5706 136.477 14.4438C135.499 14.4076 134.554 14.4076 134.368 14.4619ZM111.931 14.8422C111.189 15.1139 110.16 16.0193 109.839 16.6713C109.519 17.3232 109.232 17.0516 109.147 15.965L109.063 14.9871H104.845L104.795 22.5931C104.778 26.7764 104.795 30.3802 104.845 30.6156C104.93 31.014 104.98 31.014 107.005 30.9778C108.169 30.9597 109.114 30.851 109.181 30.7424C109.249 30.6518 109.316 28.7322 109.316 26.4866C109.316 22.9372 109.35 22.3033 109.637 21.5065C110.227 19.8586 111.492 18.8806 113.078 18.8806C113.517 18.8806 113.702 18.7901 113.753 18.5547C113.871 18.0295 113.888 15.5847 113.787 15.0414C113.685 14.6068 113.601 14.5344 113.146 14.5525C112.842 14.5706 112.302 14.6974 111.931 14.8422ZM59.9709 15.1139C59.9203 15.2406 59.9034 18.8082 59.9203 23.0458L59.9709 30.7424L61.9784 30.8329C63.1931 30.8872 64.0703 30.851 64.2053 30.7424C64.3909 30.5975 64.4415 29.0582 64.4415 22.901C64.4583 18.6996 64.4077 15.1682 64.3571 15.0777C64.1884 14.806 60.0552 14.8422 59.9709 15.1139Z" fill="#170F49" fill-opacity="0.6"/>
</svg>
