<svg width="60" height="60" viewBox="0 0 60 60" fill="none" xmlns="http://www.w3.org/2000/svg">
<path fill-rule="evenodd" clip-rule="evenodd" d="M30.0843 59.4226C46.4662 59.4226 59.7463 46.1425 59.7463 29.7606C59.7463 13.3788 46.4662 0.0986328 30.0843 0.0986328C13.7025 0.0986328 0.422363 13.3788 0.422363 29.7606C0.422363 46.1425 13.7025 59.4226 30.0843 59.4226ZM28.4333 19.2601C27.2955 18.5016 25.8327 18.4309 24.6271 19.0761C23.4215 19.7213 22.6688 20.9777 22.6688 22.3451V37.1761C22.6688 38.5435 23.4215 39.7999 24.6271 40.4451C25.8327 41.0903 27.2955 41.0196 28.4333 40.2611L39.5565 32.8456C40.588 32.158 41.2076 31.0003 41.2076 29.7606C41.2076 28.5209 40.588 27.3632 39.5565 26.6756L28.4333 19.2601Z" fill="black"/>
</svg>
