<svg width="50" height="50" viewBox="0 0 50 50" fill="none" xmlns="http://www.w3.org/2000/svg">
<path d="M1.85708 0.155575C1.58371 0.252552 1.21272 0.5144 0.871019 0.853828C-0.0857509 1.81393 0.00211569 -0.717247 0.00211569 24.8176C0.00211569 50.3525 -0.0857509 47.8213 0.871019 48.7814C1.82779 49.7318 -0.0271735 49.6445 19.7233 49.6445C39.4738 49.6445 37.6188 49.7318 38.5756 48.7814C39.5323 47.8213 39.4445 50.3525 39.4445 24.8176C39.4445 -0.717247 39.5323 1.81393 38.5756 0.853828C37.6188 -0.0965767 39.4738 -0.0092926 19.6842 0.000404358C4.07327 0.000404358 2.2476 0.0198021 1.85708 0.155575ZM36.9744 2.18246C37.1209 2.28913 37.2966 2.53159 37.365 2.71585C37.5309 3.19105 37.5309 46.4442 37.365 46.9194C37.2966 47.1036 37.1209 47.3461 36.9744 47.4528L36.7011 47.6564H19.7233H2.74551L2.47214 47.4528C2.3257 47.3461 2.1402 47.0842 2.07186 46.8806C1.97423 46.5993 1.95471 42.0122 1.97423 24.6236L2.00352 2.71585L2.20854 2.4443C2.31594 2.29883 2.56001 2.12427 2.74551 2.05638C2.99934 1.9691 7.02168 1.94001 19.8893 1.9594L36.7011 1.9788L36.9744 2.18246Z" fill="#FF3E54"/>
<path d="M18.0246 7.80786C17.8196 8.01147 17.7708 8.1569 17.7708 8.52532C17.7708 8.89375 17.8196 9.03918 18.0246 9.24278L18.2882 9.49486H21.9591C26.0302 9.49486 25.9521 9.50456 26.1669 8.86466C26.2548 8.61258 26.2548 8.43807 26.1669 8.18598C25.9521 7.54609 26.0302 7.55578 21.9591 7.55578H18.2882L18.0246 7.80786Z" fill="#FF3E54"/>
<path d="M28.9884 7.83696C28.7639 8.05995 28.7053 8.20538 28.7053 8.52533C28.7053 8.84528 28.7639 8.99071 28.9884 9.21371L29.2716 9.49487H31.4682H33.6551L33.9187 9.24279C34.28 8.87437 34.28 8.1763 33.9187 7.80787L33.6551 7.55579H31.4682H29.2716L28.9884 7.83696Z" fill="#FF3E54"/>
<path d="M12.2059 9.57252C12.0497 9.59191 11.2784 10.2902 10.1361 11.4151L8.31045 13.2093L7.51965 12.4722C6.77767 11.7546 6.71909 11.7255 6.27975 11.7255C5.91853 11.7255 5.76232 11.774 5.54753 11.9873C5.32298 12.2007 5.27417 12.3268 5.27417 12.7341V13.2093L6.52383 14.4603L7.78325 15.7017H8.30069H8.81812L10.9562 13.5875C12.1375 12.4334 13.1919 11.3667 13.2896 11.2212C13.5141 10.9108 13.5532 10.2999 13.3677 9.99923C13.1626 9.6695 12.6647 9.48524 12.2059 9.57252Z" fill="#FF3E54"/>
<path d="M18.0246 14.0147C17.8196 14.2183 17.7708 14.3637 17.7708 14.7321C17.7708 15.1005 17.8196 15.246 18.0246 15.4496L18.2882 15.7017H25.9716H33.6551L33.9187 15.4496C34.2799 15.0812 34.2799 14.3831 33.9187 14.0147L33.6551 13.7626H25.9716H18.2882L18.0246 14.0147Z" fill="#FF3E54"/>
<path d="M5.52801 20.9967C5.32298 21.21 5.27417 21.3458 5.27417 21.7337V22.2186L6.56288 23.5182L7.84183 24.8177L6.56288 26.1172L5.27417 27.4168V27.9017C5.27417 28.5708 5.59635 28.8909 6.26999 28.8909H6.75814L8.06638 27.6107L9.37461 26.3403L10.6828 27.6107L11.9911 28.8909H12.4792C13.1529 28.8909 13.4751 28.5708 13.4751 27.9017V27.4168L12.1863 26.1172L10.9074 24.8177L12.1863 23.5182L13.4751 22.2186V21.7337C13.4751 21.0646 13.1529 20.7445 12.4792 20.7445H11.9911L10.6828 22.0247L9.37461 23.2951L8.06638 22.0247L6.75814 20.7445H6.26999C5.87947 20.7445 5.74279 20.793 5.52801 20.9967Z" fill="#FF3E54"/>
<path d="M18.0246 20.9972C17.8196 21.2008 17.7708 21.3462 17.7708 21.7147C17.7708 22.0831 17.8196 22.2285 18.0246 22.4321L18.2882 22.6842H21.9591C26.0302 22.6842 25.9521 22.6939 26.1669 22.054C26.2548 21.8019 26.2548 21.6274 26.1669 21.3753C25.9521 20.7354 26.0302 20.7451 21.9591 20.7451H18.2882L18.0246 20.9972Z" fill="#FF3E54"/>
<path d="M28.9884 21.0263C28.7639 21.2493 28.7053 21.3947 28.7053 21.7147C28.7053 22.0346 28.7639 22.18 28.9884 22.403L29.2716 22.6842H31.4682H33.6551L33.9187 22.4321C34.28 22.0637 34.28 21.3656 33.9187 20.9972L33.6551 20.7451H31.4682H29.2716L28.9884 21.0263Z" fill="#FF3E54"/>
<path d="M18.0246 27.2039C17.8196 27.4075 17.7708 27.5529 17.7708 27.9213C17.7708 28.2898 17.8196 28.4352 18.0246 28.6388L18.2882 28.8909H25.9716H33.6551L33.9187 28.6388C34.2799 28.2704 34.2799 27.5723 33.9187 27.2039L33.6551 26.9518H25.9716H18.2882L18.0246 27.2039Z" fill="#FF3E54"/>
<path d="M5.52801 34.186C5.32298 34.3994 5.27417 34.5352 5.27417 34.9231V35.408L6.56288 36.7075L7.84183 38.007L6.56288 39.3066L5.27417 40.6061V41.091C5.27417 41.7602 5.59635 42.0802 6.26999 42.0802H6.75814L8.06638 40.8001L9.37461 39.5296L10.6828 40.8001L11.9911 42.0802H12.4792C13.1529 42.0802 13.4751 41.7602 13.4751 41.091V40.6061L12.1863 39.3066L10.9074 38.007L12.1863 36.7075L13.4751 35.408V34.9231C13.4751 34.2539 13.1529 33.9339 12.4792 33.9339H11.9911L10.6828 35.214L9.37461 36.4844L8.06638 35.214L6.75814 33.9339H6.26999C5.87947 33.9339 5.74279 33.9824 5.52801 34.186Z" fill="#FF3E54"/>
<path d="M18.0246 34.1865C17.8196 34.3901 17.7708 34.5356 17.7708 34.904C17.7708 35.2724 17.8196 35.4178 18.0246 35.6214L18.2882 35.8735H21.9591C26.0302 35.8735 25.9521 35.8832 26.1669 35.2433C26.2548 34.9912 26.2548 34.8167 26.1669 34.5646C25.9521 33.9248 26.0302 33.9344 21.9591 33.9344H18.2882L18.0246 34.1865Z" fill="#FF3E54"/>
<path d="M28.9884 34.2155C28.7639 34.4385 28.7053 34.5839 28.7053 34.9039C28.7053 35.2238 28.7639 35.3693 28.9884 35.5922L29.2716 35.8734H31.4682H33.6551L33.9187 35.6213C34.28 35.2529 34.28 34.5548 33.9187 34.1864L33.6551 33.9343H31.4682H29.2716L28.9884 34.2155Z" fill="#FF3E54"/>
<path d="M18.0246 40.3932C17.8196 40.5968 17.7708 40.7422 17.7708 41.1107C17.7708 41.4791 17.8196 41.6245 18.0246 41.8281L18.2882 42.0802H25.9716H33.6551L33.9187 41.8281C34.2799 41.4597 34.2799 40.7616 33.9187 40.3932L33.6551 40.1411H25.9716H18.2882L18.0246 40.3932Z" fill="#FF3E54"/>
<path d="M44.8727 5.46052C43.8573 5.88723 43.1446 6.61458 42.7736 7.60378C42.5686 8.13717 42.5686 8.28264 42.5686 15.8374V23.5279L42.8224 23.7898C43.1934 24.1486 43.8964 24.1486 44.2674 23.7898L44.5212 23.5279V17.777V12.0164H46.2785H48.0359V26.8058V41.5953H46.2785H44.5212V36.4651V31.3445L44.2674 31.0827C43.8964 30.7238 43.1934 30.7238 42.8224 31.0827L42.5686 31.3445V37.173V43.0112L43.9745 46.1049C44.7457 47.8117 45.478 49.3052 45.5951 49.4216C45.8978 49.7416 46.6593 49.7416 46.9619 49.4216C47.0791 49.2955 47.8113 47.802 48.5826 46.1049L49.9885 43.0112L49.9689 25.4481L49.9396 7.89472L49.6272 7.25465C49.2465 6.48851 48.6314 5.89693 47.8601 5.53811C47.4013 5.32475 47.1377 5.27626 46.3762 5.24717C45.5756 5.22777 45.3706 5.25686 44.8727 5.46052ZM46.9912 7.40012C47.6551 7.67167 48.0359 8.45721 48.0359 9.54338V9.97979H46.2785H44.5212V9.54338C44.5212 8.10808 45.146 7.26435 46.2102 7.26435C46.464 7.26435 46.8155 7.32254 46.9912 7.40012ZM46.8838 44.8441C46.5812 45.5133 46.3078 46.0564 46.2785 46.0564C46.2492 46.0564 45.9759 45.5133 45.6732 44.8441L45.1265 43.6319H46.2785H47.4306L46.8838 44.8441Z" fill="#FF3E54"/>
<path d="M42.8224 26.719C42.6174 26.9226 42.5686 27.068 42.5686 27.4365C42.5686 27.8049 42.6174 27.9503 42.8224 28.1539C43.0275 28.3575 43.1739 28.406 43.5449 28.406C43.9159 28.406 44.0623 28.3575 44.2674 28.1539C44.4724 27.9503 44.5212 27.8049 44.5212 27.4365C44.5212 27.068 44.4724 26.9226 44.2674 26.719C44.0623 26.5154 43.9159 26.4669 43.5449 26.4669C43.1739 26.4669 43.0275 26.5154 42.8224 26.719Z" fill="#FF3E54"/>
</svg>
