<svg width="117" height="42" viewBox="0 0 117 42" fill="none" xmlns="http://www.w3.org/2000/svg">
<path d="M111.364 8.29075H106.272V0.719238H95.091L89.9491 8.29075H80.8122L77.7571 11.5357V8.29075H70.6284V0.719238H48.224V8.29075H16.7051L11.5623 0.719238H0.360107V26.6787L14.6174 41.8217H28.8748V37.4951L32.9483 41.8217H60.4446V37.4951L64.5181 41.8217H77.7571V37.4951L81.8306 41.8217H107.29L116.456 32.0869V13.699L111.364 8.29075ZM17.6726 19.1072H10.5439V21.2705H17.6726V29.9236H6.4704L2.39687 25.597V2.88253H10.5439V10.454H17.6726V19.1072ZM48.224 29.9236H23.7829L19.7094 25.597V10.454H27.8564V21.2705H29.8932V10.454H38.0402V21.2705H40.077V10.454H48.224V29.9236ZM58.4078 29.9236H50.2608V10.454H58.4078V29.9236ZM58.4078 8.29075H50.2608V2.88253H58.4078V8.29075ZM75.7203 19.1072H68.5917V21.2705H75.7203V29.9236H64.5181L60.4446 25.597V2.88253H68.5917V10.454H75.7203V19.1072ZM94.0512 19.1072H85.9041V21.2705H94.0512V29.9236H81.8306L77.7571 25.597V14.7806L81.8306 10.454H94.0512V19.1072ZM114.419 29.9236H106.272V19.1072H104.235V29.9236H96.0879V2.88253H104.235V10.454H110.345L114.419 14.7806V29.9236Z" fill="#170F49" fill-opacity="0.6"/>
</svg>
