<svg width="50" height="34" viewBox="0 0 50 34" fill="none" xmlns="http://www.w3.org/2000/svg">
<path fill-rule="evenodd" clip-rule="evenodd" d="M29.1666 4.41116H20.8333C20.2807 4.41116 19.7508 4.6292 19.3601 5.0173C18.9694 5.4054 18.7499 5.93178 18.7499 6.48064V27.1754C18.7499 27.7242 18.9694 28.2506 19.3601 28.6387C19.7508 29.0268 20.2807 29.2448 20.8333 29.2448H29.1666C29.7191 29.2448 30.249 29.0268 30.6397 28.6387C31.0304 28.2506 31.2499 27.7242 31.2499 27.1754V6.48064C31.2499 5.93178 31.0304 5.4054 30.6397 5.0173C30.249 4.6292 29.7191 4.41116 29.1666 4.41116ZM20.8333 0.272217C19.1756 0.272217 17.5859 0.926316 16.4138 2.09062C15.2417 3.25493 14.5833 4.83406 14.5833 6.48064V27.1754C14.5833 28.8219 15.2417 30.4011 16.4138 31.5654C17.5859 32.7297 19.1756 33.3838 20.8333 33.3838H29.1666C30.8242 33.3838 32.4139 32.7297 33.586 31.5654C34.7581 30.4011 35.4166 28.8219 35.4166 27.1754V6.48064C35.4166 4.83406 34.7581 3.25493 33.586 2.09062C32.4139 0.926316 30.8242 0.272217 29.1666 0.272217H20.8333Z" fill="#FF3E54"/>
<path d="M12.5 7.4326L7.27708 6.56756C6.38197 6.41943 5.46511 6.46669 4.59024 6.70607C3.71537 6.94546 2.90347 7.37121 2.21096 7.95375C1.51846 8.53628 0.961962 9.26163 0.580149 10.0794C0.198337 10.8971 0.000367597 11.7876 2.14228e-07 12.6891V22.8647C-0.000237457 23.7664 0.197287 24.6574 0.578835 25.4757C0.960384 26.2939 1.5168 27.0198 2.20937 27.6028C2.90195 28.1858 3.71407 28.6119 4.58924 28.8515C5.46441 29.0911 6.38162 29.1385 7.27708 28.9903L12.5 28.1232V23.9284L6.59167 24.9052C6.29352 24.9544 5.98816 24.9386 5.69677 24.8589C5.40538 24.7792 5.13494 24.6374 4.90422 24.4435C4.6735 24.2495 4.48803 24.008 4.36067 23.7358C4.23331 23.4635 4.16711 23.167 4.16667 22.8667V12.6911C4.1665 12.3906 4.23226 12.0935 4.35935 11.8208C4.48645 11.548 4.67184 11.306 4.90263 11.1116C5.13343 10.9172 5.40408 10.7751 5.69576 10.6951C5.98745 10.6152 6.29317 10.5993 6.59167 10.6486L12.5 11.6274V7.4326ZM37.5 7.4326L42.7229 6.56756C43.618 6.41943 44.5349 6.46669 45.4098 6.70607C46.2846 6.94546 47.0965 7.37121 47.789 7.95375C48.4815 8.53628 49.038 9.26163 49.4198 10.0794C49.8017 10.8971 49.9996 11.7876 50 12.6891V22.8647C50.0002 23.7664 49.8027 24.6574 49.4212 25.4757C49.0396 26.2939 48.4832 27.0198 47.7906 27.6028C47.098 28.1858 46.2859 28.6119 45.4108 28.8515C44.5356 29.0911 43.6184 29.1385 42.7229 28.9903L37.5 28.1232V23.9284L43.4083 24.9052C43.7065 24.9544 44.0118 24.9386 44.3032 24.8589C44.5946 24.7792 44.8651 24.6374 45.0958 24.4435C45.3265 24.2495 45.512 24.008 45.6393 23.7358C45.7667 23.4635 45.8329 23.167 45.8333 22.8667V12.6911C45.8335 12.3906 45.7677 12.0935 45.6406 11.8208C45.5135 11.548 45.3282 11.306 45.0974 11.1116C44.8666 10.9172 44.5959 10.7751 44.3042 10.6951C44.0125 10.6152 43.7068 10.5993 43.4083 10.6486L37.5 11.6274V7.4326Z" fill="#FF3E54"/>
</svg>
