<svg width="136" height="33" viewBox="0 0 136 33" fill="none" xmlns="http://www.w3.org/2000/svg">
<path d="M23.0323 32.2236L14.1943 32.05C11.3327 31.9896 8.46399 32.1104 5.6586 31.484C1.39075 30.5481 1.08842 25.9591 0.772022 22.1099C0.336097 16.6983 0.504842 11.1886 1.32748 5.82226C1.79152 2.81078 3.6196 1.01446 6.44608 0.818224C15.9872 0.108754 25.5916 0.191777 35.1117 0.52387C36.1171 0.55406 37.1296 0.720106 38.121 0.908795C43.0146 1.8296 43.1341 7.02986 43.4505 11.4074C43.7669 15.8303 43.6333 20.2758 43.0286 24.6685C42.5435 28.3064 41.6154 31.3556 37.6991 31.65C32.7914 32.0349 27.9963 32.3444 23.0745 32.2463C23.0745 32.2236 23.0464 32.2236 23.0323 32.2236ZM17.8364 23.0156C21.5347 20.7362 25.1627 18.4946 28.84 16.2303C25.1346 13.951 21.5136 11.7094 17.8364 9.44508V23.0156Z" fill="#170F49" fill-opacity="0.6"/>
<path d="M114.34 28.0877C114.171 28.8274 114.024 29.4086 113.876 30.0275H110.417V1.38422H114.453V11.9509C114.664 11.6641 114.769 11.5433 114.86 11.415C115.549 10.3961 116.442 9.7319 117.596 9.47528C119.431 9.09035 120.999 9.95833 121.554 11.8528C121.913 13.0302 122.145 14.2907 122.173 15.5209C122.229 18.6834 122.187 21.8383 122.081 25.0008C122.039 25.9669 121.765 26.9556 121.42 27.8613C120.288 30.8502 116.59 31.303 114.755 28.7142C114.642 28.5557 114.537 28.3821 114.34 28.0877ZM114.537 20.208V25.4461C114.537 26.299 114.959 26.8197 115.753 27.016C116.534 27.2122 117.167 26.8877 117.483 26.1103C117.617 25.7857 117.75 25.4461 117.757 25.1064C117.835 21.9062 117.905 18.706 117.926 15.4983C117.926 14.902 117.792 14.2831 117.624 13.702C117.307 12.6528 116.435 12.3434 115.578 12.9547C114.931 13.4227 114.537 14.0869 114.537 14.97V20.208ZM103.569 9.88285H107.794V30.0426H104.497C104.377 29.2803 104.258 28.4953 104.117 27.5745C103.892 27.9292 103.758 28.1557 103.618 28.3821C102.521 30.0803 100.967 30.6615 99.132 30.352C97.5641 30.0803 96.6219 28.7821 96.411 26.6537C96.3477 26.0197 96.3196 25.3781 96.3196 24.7441C96.3055 20.0269 96.3196 15.2945 96.3196 10.5772V9.86776H100.594V10.6904C100.594 15.2492 100.58 19.8004 100.609 24.3592C100.609 25.0083 100.672 25.68 100.777 26.3291C100.897 26.9933 101.347 27.2349 101.951 27.1896C102.929 27.1066 103.604 26.3291 103.604 25.2876V10.7735C103.569 10.4791 103.569 10.2074 103.569 9.88285ZM74.4742 9.86776H78.7209V10.7206C78.7209 15.2568 78.7069 19.7853 78.735 24.3064C78.735 24.9555 78.7912 25.6272 78.9178 26.2612C79.0795 27.0084 79.4873 27.25 80.1834 27.1518C81.1466 27.0084 81.7302 26.2914 81.7372 25.2423V10.8037V9.89795H85.9629V30.0426H82.6794C82.5599 29.2954 82.4403 28.5255 82.2857 27.5519C82.0747 27.8915 81.9552 28.0877 81.8357 28.2915C80.7388 30.0199 79.199 30.6539 77.3218 30.3445C75.8171 30.103 74.896 28.9104 74.6148 26.9556C74.5375 26.3442 74.4812 25.7404 74.4812 25.1291C74.4672 20.2307 74.4671 15.3096 74.4671 10.4112L74.4742 9.86776ZM72.2946 20.6307C72.2805 21.31 72.2383 21.9893 72.2032 22.6685C72.0414 24.7064 71.9641 27.5971 70.4313 29.084C69.454 30.0199 68.2166 30.3596 66.9369 30.4049C66.3674 30.42 65.7909 30.42 65.2213 30.3369C62.5285 29.8992 61.2769 28.6236 60.8269 25.4461C60.3137 21.7779 60.2715 18.0494 60.8832 14.3812C61.516 10.5848 63.6956 9.2413 67.0846 9.49037C70.2485 9.7319 71.6618 11.9585 72.0344 15.1285C72.2383 16.9474 72.3368 18.7891 72.2946 20.6307ZM67.9916 19.9363C67.9916 18.6457 68.0197 17.3475 67.9775 16.0568C67.9494 15.3096 67.858 14.5548 67.7103 13.8152C67.5416 12.9623 67.0353 12.5547 66.4026 12.5698C65.7838 12.5849 65.3479 12.9925 65.1229 13.785C65.0456 14.0793 64.9612 14.3812 64.9612 14.6756C64.9612 16.6984 64.9471 18.7287 64.9331 20.7514C64.919 22.6383 64.694 24.6158 65.2495 26.4197C65.4182 26.9707 65.8541 27.2726 66.4236 27.2726C66.9791 27.2726 67.3447 26.9782 67.5486 26.4499C67.7103 26.0423 67.8509 25.597 67.8509 25.1593C67.9002 23.4233 67.9916 21.6798 67.9916 19.9363ZM54.6256 16.1398C54.9982 14.185 55.3498 12.2755 55.7365 10.3584C56.2216 7.92047 56.763 5.48258 57.2411 3.03715C57.3606 2.44088 57.5856 2.29748 58.113 2.31258C59.245 2.35786 60.3981 2.32767 61.6074 2.32767C61.2137 3.88248 60.8269 5.36182 60.4473 6.81851C59.245 11.3924 58.0427 15.9813 56.8544 20.5703C56.763 20.925 56.7208 21.31 56.7208 21.6873C56.7068 24.1932 56.7208 26.6914 56.7208 29.1972V30.0124H52.5936C52.5795 29.786 52.5514 29.5595 52.5514 29.3331C52.5514 27.9141 52.446 26.4876 52.5655 25.0838C52.8678 21.71 51.8694 18.6079 51.0608 15.4681C49.9921 11.3169 48.9093 7.15061 47.8406 2.99941C47.7844 2.80317 47.7633 2.59184 47.707 2.35031H51.9186C52.8045 6.93173 53.6975 11.5131 54.6256 16.1398ZM135.377 21.4005H128.262C128.339 22.9327 128.367 24.3894 128.515 25.831C128.62 26.8348 129.133 27.2651 129.942 27.2726C130.786 27.2877 131.278 26.8348 131.475 25.8385C131.538 25.514 131.58 25.1895 131.608 24.8574C131.637 24.563 131.651 24.246 131.672 23.8233C132.874 23.8913 134.048 23.9667 135.208 24.0196C135.883 26.1706 134.667 28.9331 132.621 29.786C131.011 30.4652 129.358 30.4652 127.713 29.9445C126.497 29.5595 125.59 28.7293 125.182 27.4537C124.802 26.2612 124.444 25.0159 124.366 23.7705C124.155 20.6986 124.078 17.5965 124.514 14.5171C124.591 14.0039 124.725 13.5133 124.873 13.0151C125.463 10.9622 126.75 9.70171 128.74 9.49037C129.822 9.37716 130.94 9.42245 132.009 9.61868C133.739 9.94323 134.66 11.2792 135.061 13.0302C135.243 13.8529 135.377 14.6982 135.405 15.536C135.412 17.4607 135.377 19.3702 135.377 21.4005ZM131.334 18.7513C131.334 17.2342 131.348 15.8077 131.32 14.3737C131.32 14.034 131.201 13.6793 131.081 13.3548C130.842 12.7208 130.343 12.5472 129.745 12.5472C129.148 12.5472 128.768 12.8717 128.62 13.4529C128.17 15.1964 128.318 16.9776 128.332 18.7664C129.408 18.7513 130.385 18.7513 131.334 18.7513Z" fill="#170F49" fill-opacity="0.6"/>
<path d="M89.225 6.02633H85.0415V2.38837H97.5286V6.00369H93.3732V30.0127H89.232L89.225 6.02633Z" fill="#170F49" fill-opacity="0.6"/>
</svg>
